<svg id="TP_logo_Horiz_GR.png_TP_logo_Horiz_GR.svg" data-name="TP_logo_Horiz_GR.png, TP_logo_Horiz_GR.svg" xmlns="http://www.w3.org/2000/svg" width="151" height="50" viewBox="0 0 151 50">
  <defs>
    <style>
      .cls-1 {
        fill: #fcb813;
      }

      .cls-1, .cls-2 {
        fill-rule: evenodd;
      }

      .cls-2 {
        fill: #023f87;
      }
    </style>
  </defs>
  <path class="cls-1" d="M639,158V107.987H790V158H639Z" transform="translate(-639 -108)"/>
  <path class="cls-2" d="M751.257,146.443V119.872h27.115v26.571H751.257Zm-15.208-7.132h-4.6a0.206,0.206,0,0,1-.186-0.067,0.406,0.406,0,0,1-.042-0.21v-0.568l2.119-2.877-2.088-2.65v-0.568a0.408,0.408,0,0,1,.042-0.21,0.208,0.208,0,0,1,.186-0.067h4.34a0.254,0.254,0,0,1,.2.061,0.333,0.333,0,0,1,.046.2v0.464a0.326,0.326,0,0,1-.046.195,0.246,0.246,0,0,1-.2.063h-3.193l1.86,2.371a0.308,0.308,0,0,1,.068.139,0.238,0.238,0,0,1-.068.15l-1.891,2.6h3.452a0.246,0.246,0,0,1,.2.062,0.329,0.329,0,0,1,.047.2v0.463a0.328,0.328,0,0,1-.047.2A0.25,0.25,0,0,1,736.049,139.311Zm-5.56,0h-2.564a0.186,0.186,0,0,1-.18-0.071,0.5,0.5,0,0,1-.036-0.216v-0.6a4.394,4.394,0,0,0,1.209-1.34,3.268,3.268,0,0,0,.372-1.567,3.394,3.394,0,0,0-.16-1.089,2.229,2.229,0,0,0-.45-0.788,1.9,1.9,0,0,0-.682-0.485,2.193,2.193,0,0,0-.857-0.165,2.235,2.235,0,0,0-.864.165,1.887,1.887,0,0,0-.687.485,2.227,2.227,0,0,0-.449.788,3.366,3.366,0,0,0-.16,1.089,3.289,3.289,0,0,0,.371,1.571,4.227,4.227,0,0,0,1.22,1.336v0.6a0.441,0.441,0,0,1-.042.216,0.2,0.2,0,0,1-.185.071h-2.552a0.2,0.2,0,0,1-.187-0.071,0.443,0.443,0,0,1-.041-0.216v-0.4a0.437,0.437,0,0,1,.041-0.216,0.2,0.2,0,0,1,.187-0.073h1.343a3.188,3.188,0,0,1-.491-0.52,3.9,3.9,0,0,1-.414-0.682,4.007,4.007,0,0,1-.284-0.814,4.061,4.061,0,0,1,.109-2.211,3.148,3.148,0,0,1,.63-1.088,3.037,3.037,0,0,1,1.033-.748,3.426,3.426,0,0,1,1.422-.278,3.391,3.391,0,0,1,1.416.278,3.042,3.042,0,0,1,1.027.748,3.153,3.153,0,0,1,.632,1.088,4.1,4.1,0,0,1,.108,2.211,4.26,4.26,0,0,1-.28.814,3.654,3.654,0,0,1-.408.682,3.227,3.227,0,0,1-.49.52h1.343a0.183,0.183,0,0,1,.181.073,0.5,0.5,0,0,1,.036.216v0.4a0.5,0.5,0,0,1-.036.216A0.186,0.186,0,0,1,730.489,139.311Zm-8.072,0h-0.64a0.206,0.206,0,0,1-.187-0.067,0.422,0.422,0,0,1-.04-0.212v-6.661a0.421,0.421,0,0,1,.04-0.211,0.206,0.206,0,0,1,.187-0.067h0.64a0.206,0.206,0,0,1,.187.067,0.409,0.409,0,0,1,.041.211v6.661a0.41,0.41,0,0,1-.041.212A0.206,0.206,0,0,1,722.417,139.312Zm-1.673,0h-0.7a0.2,0.2,0,0,1-.15-0.057,0.571,0.571,0,0,1-.109-0.191l-0.651-1.6h-3.266l-0.661,1.6a0.555,0.555,0,0,1-.108.191,0.2,0.2,0,0,1-.15.057h-0.682a0.163,0.163,0,0,1-.155-0.073,0.191,0.191,0,0,1,0-.175l2.79-6.723a0.571,0.571,0,0,1,.109-0.191,0.205,0.205,0,0,1,.149-0.056h0.693a0.206,0.206,0,0,1,.15.056,0.572,0.572,0,0,1,.108.191l2.791,6.723a0.191,0.191,0,0,1,0,.175A0.163,0.163,0,0,1,720.744,139.312Zm-3.245-5.857-1.24,3.032h2.469Zm-3.359,2.64a2.232,2.232,0,0,1-.785.525,2.976,2.976,0,0,1-1.138.2h-1.529v2.217a0.421,0.421,0,0,1-.041.212,0.206,0.206,0,0,1-.186.067h-0.62a0.206,0.206,0,0,1-.187-0.067,0.421,0.421,0,0,1-.041-0.212v-6.661a0.419,0.419,0,0,1,.041-0.211,0.206,0.206,0,0,1,.187-0.067h2.376a3.025,3.025,0,0,1,1.142.195,2.172,2.172,0,0,1,.786.526,2.111,2.111,0,0,1,.45.759,2.749,2.749,0,0,1,0,1.762A2.081,2.081,0,0,1,714.14,136.1Zm-0.894-2.656a1.371,1.371,0,0,0-1.029-.387h-1.529v2.806h1.529a1.371,1.371,0,0,0,1.029-.387A1.558,1.558,0,0,0,713.246,133.439Zm-5.266,5.873h-0.64a0.206,0.206,0,0,1-.187-0.067,0.422,0.422,0,0,1-.04-0.212v-6.661a0.421,0.421,0,0,1,.04-0.211,0.206,0.206,0,0,1,.187-0.067h0.64a0.206,0.206,0,0,1,.187.067,0.409,0.409,0,0,1,.041.211v6.661a0.41,0.41,0,0,1-.041.212A0.206,0.206,0,0,1,707.98,139.312Zm-2.139,0h-3.565a0.2,0.2,0,0,1-.186-0.068,0.4,0.4,0,0,1-.041-0.21v-6.662a0.409,0.409,0,0,1,.041-0.211,0.207,0.207,0,0,1,.186-0.067h3.565a0.248,0.248,0,0,1,.2.062,0.337,0.337,0,0,1,.046.2v0.463a0.332,0.332,0,0,1-.046.2,0.244,0.244,0,0,1-.2.062h-2.718v2.062h1.851a0.246,0.246,0,0,1,.2.062,0.331,0.331,0,0,1,.046.2v0.465a0.332,0.332,0,0,1-.046.19,0.233,0.233,0,0,1-.2.067h-1.851v2.217h2.718a0.248,0.248,0,0,1,.2.062,0.335,0.335,0,0,1,.046.195v0.465a0.337,0.337,0,0,1-.046.2A0.248,0.248,0,0,1,705.841,139.312Zm-5.425,0h-0.63a0.2,0.2,0,0,1-.187-0.068,0.4,0.4,0,0,1-.041-0.21v-5.961h-3.3v5.961a0.4,0.4,0,0,1-.041.21,0.2,0.2,0,0,1-.186.068h-0.641a0.2,0.2,0,0,1-.185-0.068,0.4,0.4,0,0,1-.042-0.21v-6.662a0.407,0.407,0,0,1,.042-0.211,0.2,0.2,0,0,1,.185-0.067h5.023a0.208,0.208,0,0,1,.186.067,0.419,0.419,0,0,1,.041.211v6.662a0.415,0.415,0,0,1-.041.21A0.2,0.2,0,0,1,700.416,139.312Zm-8.081,0h-0.7a0.2,0.2,0,0,1-.15-0.057,0.555,0.555,0,0,1-.109-0.191l-0.651-1.6h-3.266l-0.661,1.6a0.572,0.572,0,0,1-.108.191,0.205,0.205,0,0,1-.151.057h-0.682a0.16,0.16,0,0,1-.154-0.073,0.191,0.191,0,0,1,0-.175l2.79-6.723a0.555,0.555,0,0,1,.109-0.191,0.2,0.2,0,0,1,.149-0.056h0.693a0.2,0.2,0,0,1,.149.056,0.571,0.571,0,0,1,.109.191l2.791,6.723a0.2,0.2,0,0,1,0,.175A0.163,0.163,0,0,1,692.335,139.312Zm-3.245-5.857-1.24,3.032h2.469Zm-4.134,5.857h-4.579a0.244,0.244,0,0,1-.2-0.063,0.326,0.326,0,0,1-.046-0.195v-0.588l3.709-5.393h-3.2a0.249,0.249,0,0,1-.2-0.061,0.332,0.332,0,0,1-.047-0.2v-0.463a0.329,0.329,0,0,1,.047-0.2,0.242,0.242,0,0,1,.2-0.062h4.32a0.246,0.246,0,0,1,.2.062,0.329,0.329,0,0,1,.046.2v0.587l-3.71,5.393h3.462a0.249,0.249,0,0,1,.2.062,0.327,0.327,0,0,1,.046.2v0.464a0.326,0.326,0,0,1-.046.195A0.245,0.245,0,0,1,684.956,139.312Zm-5.715,0h-3.566a0.2,0.2,0,0,1-.186-0.068,0.416,0.416,0,0,1-.04-0.21v-6.662a0.421,0.421,0,0,1,.04-0.211,0.208,0.208,0,0,1,.186-0.067h3.566a0.245,0.245,0,0,1,.2.062,0.329,0.329,0,0,1,.046.2v0.463a0.325,0.325,0,0,1-.046.2,0.242,0.242,0,0,1-.2.062h-2.718v2.062h1.85a0.246,0.246,0,0,1,.2.062,0.331,0.331,0,0,1,.047.2v0.465a0.331,0.331,0,0,1-.047.19,0.233,0.233,0,0,1-.2.067h-1.85v2.217h2.718a0.245,0.245,0,0,1,.2.062,0.328,0.328,0,0,1,.046.195v0.465a0.329,0.329,0,0,1-.046.2A0.245,0.245,0,0,1,679.241,139.312Zm-5.426,0h-0.63a0.2,0.2,0,0,1-.187-0.068,0.416,0.416,0,0,1-.04-0.21v-5.961h-3.3v5.961a0.416,0.416,0,0,1-.04.21,0.2,0.2,0,0,1-.186.068h-0.641a0.2,0.2,0,0,1-.186-0.068,0.4,0.4,0,0,1-.042-0.21v-6.662a0.407,0.407,0,0,1,.042-0.211,0.208,0.208,0,0,1,.186-0.067h5.022a0.208,0.208,0,0,1,.186.067,0.407,0.407,0,0,1,.042.211v6.662a0.4,0.4,0,0,1-.042.21A0.2,0.2,0,0,1,673.815,139.312Zm-6.055,0h-0.7a0.205,0.205,0,0,1-.151-0.057,0.572,0.572,0,0,1-.108-0.191l-0.651-1.6h-3.266l-0.661,1.6a0.572,0.572,0,0,1-.108.191,0.205,0.205,0,0,1-.151.057h-0.682a0.16,0.16,0,0,1-.154-0.073,0.191,0.191,0,0,1,0-.175l2.789-6.723a0.571,0.571,0,0,1,.11-0.191,0.2,0.2,0,0,1,.149-0.056h0.693a0.2,0.2,0,0,1,.149.056,0.571,0.571,0,0,1,.109.191l2.791,6.723a0.2,0.2,0,0,1,0,.175A0.163,0.163,0,0,1,667.76,139.312Zm-3.245-5.857-1.241,3.032h2.47Zm-3.36,2.64a2.214,2.214,0,0,1-.785.525,2.971,2.971,0,0,1-1.137.2H657.7v2.217a0.422,0.422,0,0,1-.04.212,0.206,0.206,0,0,1-.186.067h-0.62a0.205,0.205,0,0,1-.187-0.067,0.41,0.41,0,0,1-.041-0.212v-6.661a0.409,0.409,0,0,1,.041-0.211,0.205,0.205,0,0,1,.187-0.067h2.376a3.029,3.029,0,0,1,1.142.195,2.189,2.189,0,0,1,.786.526,2.125,2.125,0,0,1,.45.759,2.767,2.767,0,0,1,0,1.762A2.083,2.083,0,0,1,661.155,136.1Zm-0.893-2.656a1.371,1.371,0,0,0-1.029-.387H657.7v2.806h1.53a1.371,1.371,0,0,0,1.029-.387A1.558,1.558,0,0,0,660.262,133.439Zm-4.707-.366h-1.748v5.961a0.411,0.411,0,0,1-.041.211,0.2,0.2,0,0,1-.185.067H652.94a0.2,0.2,0,0,1-.186-0.067,0.41,0.41,0,0,1-.042-0.211v-5.961h-1.746a0.246,0.246,0,0,1-.2-0.062,0.323,0.323,0,0,1-.046-0.2v-0.463a0.329,0.329,0,0,1,.046-0.2,0.249,0.249,0,0,1,.2-0.062h4.589a0.246,0.246,0,0,1,.2.062,0.329,0.329,0,0,1,.046.2v0.463a0.323,0.323,0,0,1-.046.2A0.243,0.243,0,0,1,655.555,133.073Z" transform="translate(-639 -108)"/>
  <path class="cls-1" d="M764.849,129.711l1.391-1.685,12.132,9.968v2.823Zm5.345,9.788-11.948-9.788,1.389-1.686,11.949,9.795Zm-6.609,0-12.329-10.1v-2.819l13.722,11.239Z" transform="translate(-639 -108)"/>
</svg>
